<svg width="1105" height="294" viewBox="0 0 1105 294" fill="none" xmlns="http://www.w3.org/2000/svg">
<path d="M386.453 211.037V104.545H437.888V290H388.506V256.314H386.574C382.388 267.18 375.425 275.914 365.686 282.514C356.027 289.115 344.235 292.415 330.309 292.415C317.914 292.415 307.007 289.598 297.589 283.963C288.172 278.329 280.807 270.32 275.494 259.936C270.262 249.553 267.606 237.117 267.525 222.628V104.545H318.96V213.452C319.041 224.399 321.979 233.052 327.774 239.411C333.569 245.769 341.337 248.949 351.077 248.949C357.274 248.949 363.07 247.54 368.463 244.723C373.856 241.825 378.202 237.559 381.503 231.925C384.883 226.29 386.533 219.328 386.453 211.037Z" fill="black"/>
<path d="M530.464 182.784V290H479.029V104.545H528.049V137.266H530.222C534.328 126.48 541.21 117.947 550.869 111.669C560.528 105.31 572.24 102.131 586.004 102.131C598.883 102.131 610.111 104.948 619.69 110.582C629.268 116.217 636.714 124.266 642.026 134.73C647.339 145.114 649.995 157.509 649.995 171.918V290H598.561V181.094C598.641 169.744 595.743 160.89 589.867 154.531C583.991 148.092 575.902 144.872 565.599 144.872C558.677 144.872 552.559 146.361 547.247 149.34C542.015 152.318 537.909 156.664 534.931 162.379C532.034 168.014 530.544 174.815 530.464 182.784Z" fill="black"/>
<path d="M758.871 293.018C744.785 293.018 732.027 289.396 720.597 282.152C709.248 274.827 700.233 264.081 693.552 249.915C686.951 235.668 683.651 218.201 683.651 197.514C683.651 176.264 687.072 158.596 693.914 144.51C700.756 130.343 709.851 119.759 721.201 112.756C732.631 105.672 745.147 102.131 758.751 102.131C769.134 102.131 777.787 103.902 784.709 107.443C791.712 110.904 797.347 115.251 801.613 120.483C805.959 125.635 809.26 130.706 811.513 135.696H813.083V42.7273H864.397V290H813.687V260.298H811.513C809.099 265.45 805.678 270.561 801.251 275.632C796.904 280.623 791.229 284.768 784.226 288.068C777.304 291.368 768.852 293.018 758.871 293.018ZM775.171 252.088C783.462 252.088 790.465 249.834 796.18 245.327C801.975 240.739 806.402 234.34 809.461 226.129C812.6 217.919 814.17 208.3 814.17 197.273C814.17 186.245 812.64 176.667 809.581 168.537C806.523 160.407 802.096 154.129 796.3 149.702C790.505 145.275 783.462 143.061 775.171 143.061C766.719 143.061 759.596 145.355 753.8 149.943C748.005 154.531 743.618 160.89 740.64 169.02C737.662 177.15 736.172 186.567 736.172 197.273C736.172 208.059 737.662 217.597 740.64 225.888C743.698 234.098 748.085 240.537 753.8 245.206C759.596 249.794 766.719 252.088 775.171 252.088Z" fill="black"/>
<path d="M959.931 42.7273V290H907.651V42.7273H959.931Z" fill="black"/>
<path d="M1100.62 104.545V143.182H988.939V104.545H1100.62ZM1014.29 60.1137H1065.73V233.011C1065.73 237.76 1066.45 241.463 1067.9 244.119C1069.35 246.695 1071.36 248.506 1073.94 249.553C1076.59 250.599 1079.65 251.122 1083.11 251.122C1085.53 251.122 1087.94 250.921 1090.36 250.518C1092.77 250.036 1094.63 249.673 1095.91 249.432L1104 287.706C1101.43 288.511 1097.8 289.437 1093.14 290.483C1088.47 291.61 1082.79 292.294 1076.11 292.536C1063.72 293.019 1052.85 291.368 1043.51 287.585C1034.26 283.802 1027.05 277.926 1021.9 269.957C1016.75 261.989 1014.21 251.927 1014.29 239.773V60.1137Z" fill="black"/>
<path d="M49.789 202.557C25.3745 202.557 5.5827 182.735 5.5827 158.282C5.5827 133.83 25.3745 114.008 49.789 114.008L189.776 114.008C214.19 114.008 233.982 133.83 233.982 158.282C233.982 182.735 214.19 202.557 189.776 202.557L49.789 202.557Z" fill="#151514"/>
<path d="M4.47755 159.389C4.47755 134.937 24.2694 115.115 48.6838 115.115C73.0983 115.115 92.8901 134.937 92.8901 159.389V245.725C92.8901 270.177 73.0983 290 48.6838 290C24.2694 290 4.47755 270.177 4.47755 245.725V159.389Z" fill="#151514"/>
<path d="M59.3329 88.5496C34.9184 88.5496 15.1266 68.7271 15.1266 44.2748C15.1266 19.8225 34.9184 6.95542e-06 59.3329 5.88658e-06L193.794 0C218.208 -1.06884e-06 238 19.8225 238 44.2748C238 68.7271 218.208 88.5496 193.794 88.5496L59.3329 88.5496Z" fill="#151514"/>
<path d="M2.04884 127.29C-10.8105 0.553559 40.361 0.553496 58.2277 0.553466L126.195 54.0521C117.661 64.6904 95.1005 87.5166 57.5251 88.5497C19.9498 89.5827 3.5838 114.377 2.04884 127.29Z" fill="#151514"/>
</svg>
